<svg width="60" height="60" viewBox="0 0 60 60" fill="none" xmlns="http://www.w3.org/2000/svg">
<circle cx="30" cy="30" r="28.5" stroke="#86BE5C" stroke-width="3"/>
<path d="M28.9872 17.0325C26.0311 17.3629 23.3289 18.8987 21.5919 21.2229C20.8504 22.2196 20.3882 23.0894 20.0173 24.2184C19.809 24.839 19.5856 25.7797 19.5856 26.0238C19.5856 26.1001 19.5349 26.1407 19.3723 26.1867C19.0624 26.268 18.5902 26.5172 18.2598 26.7664C17.7621 27.1529 17.3965 27.6768 17.1628 28.343L17.0206 28.75L17.0052 30.7334C16.9847 33.0016 17.0102 33.2 17.3557 33.9019C17.7263 34.6545 18.3917 35.2495 19.2298 35.5699C19.5853 35.7022 19.6615 35.7123 20.3473 35.7123C20.9873 35.7174 21.1295 35.7022 21.4139 35.6005C22.4144 35.2445 23.1968 34.4613 23.5573 33.4542C23.669 33.1339 23.6741 33.0677 23.6895 31.0639C23.7046 28.7346 23.6895 28.5617 23.344 27.8699C23.1103 27.4021 22.7396 26.9749 22.3027 26.6646L21.9877 26.4359L22.0589 26.0188C22.1554 25.4798 22.4704 24.5287 22.7343 23.9743C23.3236 22.7385 24.4257 21.4872 25.6042 20.7296C26.8891 19.8954 28.2505 19.4786 29.8047 19.4276C31.1506 19.392 32.2225 19.5801 33.35 20.0532C34.3505 20.4804 35.204 21.0603 35.9912 21.8586C37.0782 22.9571 37.8349 24.376 38.1448 25.8969C38.1904 26.1155 38.2209 26.3038 38.2159 26.3089C38.2058 26.319 38.023 26.4412 37.8094 26.5836C37.088 27.0668 36.6007 27.7432 36.3974 28.5518C36.3059 28.9078 36.2958 29.1214 36.2958 30.9116C36.2958 33.0985 36.3263 33.3427 36.6513 33.9529C36.9408 34.4972 37.469 35.0564 37.9567 35.3311C38.0482 35.3768 37.9312 35.6363 37.4844 36.3685C36.1029 38.6367 33.9847 40.0964 31.4756 40.5032C31.0389 40.5744 29.8705 40.5999 29.7232 40.5438C29.6776 40.5284 29.5659 40.4065 29.4743 40.2742C29.3778 40.1419 29.1899 39.9588 29.0578 39.8725C28.8241 39.7147 27.9607 39.4097 27.2547 39.2267C26.3506 38.9926 25.5429 39.3284 25.1723 40.0861C24.8828 40.6761 24.9234 41.2813 25.284 41.8253C25.5278 42.1813 25.8733 42.3999 26.5994 42.6491C28.108 43.1576 28.6768 43.122 29.3117 42.4863L29.5656 42.227L30.175 42.2421C32.5774 42.3083 34.8886 41.4996 36.7322 39.9485C37.8497 39.0075 38.8656 37.6699 39.47 36.3273C39.5817 36.0731 39.6934 35.8441 39.7088 35.8138C39.729 35.7832 39.8916 35.7426 40.0643 35.7275C41.1004 35.6308 42.1621 34.8782 42.6394 33.9016C42.9745 33.2252 43 33.0268 43 30.896C43 28.7702 42.9745 28.5717 42.6394 27.88C42.3041 27.1933 41.6742 26.6035 40.943 26.2983L40.6942 26.1915L40.557 25.5101C39.6987 21.1568 36.2396 17.8509 31.7749 17.1031C31.1915 17.0069 29.5815 16.9663 28.9872 17.0325Z" fill="#8A8A8A"/>
</svg>
