<svg width="22" height="25" viewBox="0 0 22 25" fill="none" xmlns="http://www.w3.org/2000/svg">
<path fill-rule="evenodd" clip-rule="evenodd" d="M1 0C0.447715 0 0 0.447715 0 0.999999V23.783C0 24.3353 0.447715 24.783 1 24.783H20.25C20.8023 24.783 21.25 24.3353 21.25 23.783V1C21.25 0.447715 20.8023 0 20.25 0H1ZM19.4662 1.755H1.77692V23.0157H19.4662V1.755Z" fill="#86BE5C"/>
<path d="M16.2616 8.125H12.7199C12.2311 8.125 11.8345 8.52167 11.8345 9.01042C11.8345 9.49917 12.2311 9.89583 12.7199 9.89583H16.2616C16.7503 9.89583 17.147 9.49917 17.147 9.01042C17.147 8.52167 16.7503 8.125 16.2616 8.125Z" fill="#86BE5C"/>
<path d="M6.09757 10.5968C5.80988 10.3091 5.80988 9.84272 6.09757 9.55503L9.36787 6.28473C9.65555 5.99705 10.122 5.99705 10.4097 6.28473C10.6974 6.57242 10.6974 7.03885 10.4097 7.32654L7.13937 10.5968C6.85169 10.8845 6.38526 10.8845 6.09757 10.5968Z" fill="#86BE5C"/>
<path d="M4.66326 8.15372C4.95191 7.86507 5.41991 7.86507 5.70856 8.15372L7.10453 9.54969C7.39318 9.83834 7.39318 10.3063 7.10453 10.595C6.81588 10.8836 6.34789 10.8836 6.05924 10.595L4.66326 9.19901C4.37462 8.91036 4.37461 8.44237 4.66326 8.15372Z" fill="#86BE5C"/>
<path d="M16.2616 15.5081H12.7199C12.2311 15.5081 11.8345 15.9047 11.8345 16.3935C11.8345 16.8822 12.2311 17.2789 12.7199 17.2789H16.2616C16.7503 17.2789 17.147 16.8822 17.147 16.3935C17.147 15.9047 16.7503 15.5081 16.2616 15.5081Z" fill="#86BE5C"/>
<rect x="5.19385" y="12.8752" width="6.71014" height="1.47333" rx="0.65" transform="rotate(45 5.19385 12.8752)" fill="#86BE5C"/>
<rect x="4.09961" y="17.6722" width="6.85782" height="1.47333" rx="0.65" transform="rotate(-45 4.09961 17.6722)" fill="#86BE5C"/>
</svg>
