<svg width="60" height="60" viewBox="0 0 60 60" fill="none" xmlns="http://www.w3.org/2000/svg">
<circle cx="30" cy="30" r="28.5" stroke="#86BE5C" stroke-width="3"/>
<path d="M33.8078 25.5C33.6719 24.4219 32.8563 23.5781 31.8594 23.25L29.5938 22.5938C29.4125 22.5469 29.3219 22.3594 29.3219 22.2188C29.3219 21.9844 29.5031 21.7969 29.6844 21.7969H31.1797C31.3609 21.7969 31.4969 21.8438 31.6328 21.9375C31.8594 22.0312 32.1313 21.9844 32.2672 21.8438L33.0828 21C33.3094 20.7656 33.3094 20.3438 32.9922 20.1562C32.5844 19.8281 32.0859 19.6875 31.5875 19.5938V18.75C31.5875 18.375 31.225 18 30.8625 18H30.1375C29.7297 18 29.4125 18.375 29.4125 18.75V19.5938C28.0078 19.7813 26.9656 21.0469 27.1469 22.5469C27.2828 23.625 28.0984 24.4688 29.0953 24.7969L31.3609 25.4531C31.5422 25.5 31.6328 25.6406 31.6328 25.8281C31.6328 26.0625 31.4969 26.25 31.2703 26.25H29.775C29.6391 26.25 29.4578 26.2031 29.3219 26.1094C29.0953 26.0156 28.8234 26.0625 28.6875 26.2031L27.8719 27.0469C27.6453 27.2812 27.6906 27.7031 27.9625 27.8906C28.3703 28.2188 28.8687 28.3594 29.4125 28.4531V29.25C29.4125 29.6719 29.7297 30 30.1375 30H30.8625C31.225 30 31.5875 29.6719 31.5875 29.25V28.4531C32.9469 28.2656 33.9891 27 33.8078 25.5ZM25.2437 28.8281C24.7906 28.1719 23.8844 28.0312 23.25 28.5C22.5703 29.0156 22.4797 29.9531 22.9328 30.6094L24.6547 33C24.8812 33.2813 24.8359 33.7031 24.6094 33.9844L24.0203 34.5938C23.7031 34.875 23.2047 34.875 22.9328 34.5469L18.9 29.4844V22.5C18.9 21.7031 18.2203 21 17.45 21C16.6344 21 16 21.7031 16 22.5V32.7656C16 33.2813 16.1359 33.75 16.4531 34.1719L21.1656 40.4531C21.3922 40.7812 21.5734 41.1094 21.6641 41.4844C21.7094 41.8125 22.0266 42 22.3438 42H28.325C28.6875 42 29.05 41.6719 29.05 41.25V36C29.05 34.7344 28.6422 33.4688 27.8719 32.4375L25.2437 28.8281ZM43.55 21C42.7344 21 42.1 21.7031 42.1 22.5V29.4844L38.0219 34.5469C37.75 34.875 37.2516 34.875 36.9344 34.5938L36.3453 33.9844C36.1187 33.7031 36.0734 33.2813 36.3 33L38.0219 30.6094C38.5203 29.9531 38.3844 29.0156 37.75 28.5C37.0703 28.0312 36.1641 28.1719 35.7109 28.8281L33.0828 32.4375C32.3578 33.4688 31.95 34.7344 31.95 36V41.25C31.95 41.6719 32.2672 42 32.675 42H38.6109C38.9281 42 39.2453 41.8125 39.3359 41.4844C39.4266 41.1094 39.5625 40.7812 39.7891 40.4531L44.5016 34.1719C44.8188 33.75 45 33.2813 45 32.7656V22.5C45 21.7031 44.3203 21 43.55 21Z" fill="#8A8A8A"/>
</svg>
