<svg width="32" height="32" viewBox="0 0 32 32" fill="none" xmlns="http://www.w3.org/2000/svg">
<path d="M15.7031 22.7266C15.2656 22.0885 14.7643 21.3685 14.1992 20.5664C13.6523 19.7643 13.2604 19.1992 13.0234 18.8711C12.7865 18.543 12.513 18.1419 12.2031 17.668C11.8932 17.1758 11.6836 16.8294 11.5742 16.6289C11.4831 16.4284 11.3737 16.1732 11.2461 15.8633C11.1367 15.5534 11.0638 15.2891 11.0273 15.0703C11.0091 14.8333 11 14.5599 11 14.25C11 12.7917 11.5104 11.5521 12.5312 10.5312C13.5521 9.51042 14.7917 9 16.25 9C17.7083 9 18.9479 9.51042 19.9688 10.5312C20.9896 11.5521 21.5 12.7917 21.5 14.25C21.5 14.5599 21.4818 14.8333 21.4453 15.0703C21.4271 15.2891 21.3542 15.5534 21.2266 15.8633C21.1172 16.1732 21.0078 16.4284 20.8984 16.6289C20.8073 16.8294 20.6068 17.1758 20.2969 17.668C19.987 18.1419 19.7135 18.543 19.4766 18.8711C19.2396 19.1992 18.8385 19.7643 18.2734 20.5664C17.7266 21.3685 17.2344 22.0885 16.7969 22.7266C16.6693 22.9089 16.487 23 16.25 23C16.013 23 15.8307 22.9089 15.7031 22.7266ZM14.6914 15.8086C15.1289 16.2279 15.6484 16.4375 16.25 16.4375C16.8516 16.4375 17.362 16.2279 17.7812 15.8086C18.2188 15.3711 18.4375 14.8516 18.4375 14.25C18.4375 13.6484 18.2188 13.138 17.7812 12.7188C17.362 12.2812 16.8516 12.0625 16.25 12.0625C15.6484 12.0625 15.1289 12.2812 14.6914 12.7188C14.2721 13.138 14.0625 13.6484 14.0625 14.25C14.0625 14.8516 14.2721 15.3711 14.6914 15.8086Z" fill="#86BE5C"/>
<path fill-rule="evenodd" clip-rule="evenodd" d="M16 32C24.8366 32 32 24.8366 32 16C32 7.16344 24.8366 0 16 0C7.16344 0 0 7.16344 0 16C0 24.8366 7.16344 32 16 32ZM16 29C23.1797 29 29 23.1797 29 16C29 8.8203 23.1797 3 16 3C8.8203 3 3 8.8203 3 16C3 23.1797 8.8203 29 16 29Z" fill="#86BE5C"/>
<path fill-rule="evenodd" clip-rule="evenodd" d="M16 32C24.8366 32 32 24.8366 32 16C32 7.16344 24.8366 0 16 0C7.16344 0 0 7.16344 0 16C0 24.8366 7.16344 32 16 32ZM16.5 29C23.9558 29 30 23.1797 30 16C30 8.8203 23.9558 3 16.5 3C9.04416 3 3 8.8203 3 16C3 23.1797 9.04416 29 16.5 29Z" fill="#86BE5C"/>
</svg>
