<svg width="27" height="25" viewBox="0 0 27 25" fill="none" xmlns="http://www.w3.org/2000/svg">
<path d="M25.9468 11.1123C25.9057 10.7609 25.4795 10.4965 25.1109 10.4965C23.9197 10.4965 22.8625 9.82427 22.4192 8.78376C21.9666 7.71828 22.2586 6.47592 23.1461 5.69305C23.4256 5.4473 23.4597 5.03581 23.2254 4.75017C22.6155 4.00568 21.9226 3.33309 21.1659 2.75024C20.8698 2.5219 20.4348 2.55368 20.1779 2.82711C19.4031 3.65225 18.0112 3.95887 16.9356 3.52738C15.8167 3.07469 15.1104 1.98413 15.1798 0.813554C15.2026 0.445635 14.9229 0.125936 14.5416 0.0832304C13.5704 -0.0248856 12.5907 -0.028021 11.6168 0.0758785C11.2403 0.115881 10.9608 0.428013 10.9733 0.791282C11.0154 1.95039 10.3012 3.02172 9.19311 3.45818C8.13043 3.87562 6.7482 3.57127 5.97494 2.75337C5.71937 2.48395 5.29198 2.45086 4.9939 2.67434C4.21491 3.26217 3.50642 3.93519 2.89092 4.67362C2.65108 4.96067 2.6865 5.3767 2.96839 5.62331C3.87343 6.41137 4.16521 7.66444 3.69532 8.74235C3.24668 9.77 2.13701 10.432 0.866764 10.432C0.454556 10.4192 0.161198 10.6855 0.11566 11.046C0.0014202 11.9848 0.000183366 12.9418 0.11015 13.8882C0.151191 14.2411 0.590047 14.5032 0.962676 14.5032C2.09495 14.4755 3.18136 15.1491 3.63775 16.2159C4.0919 17.2814 3.79955 18.5232 2.9106 19.3071C2.63253 19.5529 2.597 19.9634 2.83178 20.2487C3.43547 20.9886 4.12901 21.6616 4.88798 22.2494C5.18595 22.4801 5.61929 22.4478 5.87757 22.174C6.65544 21.347 8.04711 21.0409 9.11834 21.4732C10.2405 21.9247 10.9464 23.0152 10.8775 24.1861C10.8549 24.554 11.1353 24.8747 11.5152 24.9164C12.0122 24.9723 12.5118 25 13.0129 25C13.4886 25 13.9643 24.975 14.44 24.9241C14.8169 24.8841 15.096 24.5716 15.0833 24.2082C15.0398 23.0497 15.7556 21.9782 16.8624 21.5426C17.9321 21.1225 19.3082 21.43 20.0819 22.2467C20.3388 22.5156 20.7636 22.5482 21.0629 22.3256C21.8405 21.7393 22.5477 21.0666 23.1659 20.3262C23.4059 20.0397 23.3719 19.6232 23.0884 19.3761C22.1836 18.5886 21.8902 17.335 22.3601 16.2582C22.8018 15.2443 23.8702 14.5636 25.0194 14.5636L25.1802 14.5678C25.5532 14.5968 25.8961 14.3206 25.9411 13.9546C26.056 13.015 26.0572 12.059 25.9468 11.1123ZM13.0286 19.7064C8.8893 19.7064 5.53395 16.4801 5.53395 12.5001C5.53395 8.52017 8.88941 5.29388 13.0286 5.29388C17.1677 5.29388 20.5232 8.52017 20.5232 12.5001C20.5232 13.8511 20.1358 15.1146 19.4631 16.1951L16.1814 13.0395C16.419 12.5009 16.5445 11.917 16.5444 11.3143C16.5444 10.1342 16.0664 9.02486 15.1985 8.19053C14.3307 7.3562 13.177 6.8967 11.9499 6.8967C11.5404 6.8967 11.1328 6.94903 10.7385 7.05228C10.5658 7.09758 10.4246 7.23446 10.3786 7.40085C10.3316 7.57102 10.3845 7.74542 10.5228 7.87851C10.5228 7.87851 12.143 9.44835 12.6851 9.96947C12.7418 10.0241 12.7417 10.1543 12.7338 10.2013L12.7287 10.2355C12.674 10.8086 12.5687 11.4964 12.4818 11.7607C12.4701 11.7719 12.4591 11.7813 12.4471 11.7927C12.4347 11.8047 12.4232 11.8163 12.4112 11.8282C12.1326 11.9142 11.4063 12.0166 10.8009 12.0688L10.801 12.0656L10.7738 12.0722C10.769 12.0728 10.76 12.0734 10.7481 12.0734C10.6826 12.0734 10.5864 12.0558 10.4989 11.9718C9.93466 11.4293 8.37803 9.9432 8.37803 9.9432C8.23838 9.80935 8.09513 9.78124 7.99966 9.78124C7.77714 9.78124 7.5779 9.93585 7.51516 10.1576C7.08665 11.6824 7.54091 13.3225 8.70096 14.438C9.56889 15.2725 10.7228 15.7319 11.95 15.7319C12.5768 15.7319 13.1841 15.6114 13.7441 15.383L17.0615 18.5727C15.8968 19.2893 14.5138 19.7064 13.0286 19.7064Z" fill="#52ADE1"/>
</svg>
