<svg width="32" height="32" viewBox="0 0 32 32" fill="none" xmlns="http://www.w3.org/2000/svg">
<path fill-rule="evenodd" clip-rule="evenodd" d="M16 32C24.8366 32 32 24.8366 32 16C32 7.16344 24.8366 0 16 0C7.16344 0 0 7.16344 0 16C0 24.8366 7.16344 32 16 32ZM16 29C23.1797 29 29 23.1797 29 16C29 8.8203 23.1797 3 16 3C8.8203 3 3 8.8203 3 16C3 23.1797 8.8203 29 16 29Z" fill="#86BE5C"/>
<path d="M21.9996 18.9843V20.7908C22.0003 20.9585 21.9659 21.1245 21.8986 21.2781C21.8313 21.4318 21.7325 21.5697 21.6087 21.6831C21.4849 21.7965 21.3387 21.8828 21.1795 21.9365C21.0203 21.9903 20.8517 22.0102 20.6843 21.9951C18.8277 21.7938 17.0443 21.1606 15.4773 20.1465C14.0195 19.222 12.7836 17.9884 11.8572 16.5335C10.8375 14.9626 10.2029 13.174 10.0049 11.3128C9.98982 11.1463 10.0096 10.9784 10.0631 10.82C10.1166 10.6615 10.2025 10.5159 10.3155 10.3924C10.4284 10.269 10.5659 10.1703 10.7191 10.1027C10.8724 10.0352 11.038 10.0002 11.2056 10.0001H13.0156C13.3085 9.99718 13.5923 10.1007 13.8143 10.2912C14.0364 10.4818 14.1814 10.7464 14.2224 11.0358C14.2988 11.6139 14.4404 12.1815 14.6447 12.7278C14.7259 12.9434 14.7435 13.1776 14.6953 13.4028C14.6472 13.628 14.5354 13.8347 14.3732 13.9984L13.6069 14.7632C14.4658 16.2707 15.7165 17.5189 17.2271 18.3761L17.9933 17.6114C18.1574 17.4495 18.3645 17.3379 18.5901 17.2899C18.8158 17.2419 19.0505 17.2594 19.2664 17.3404C19.8138 17.5443 20.3826 17.6857 20.9619 17.7619C21.2549 17.8032 21.5226 17.9505 21.714 18.1759C21.9053 18.4013 22.007 18.689 21.9996 18.9843Z" fill="#86BE5C"/>
</svg>
