<svg width="27" height="27" viewBox="0 0 27 27" fill="none" xmlns="http://www.w3.org/2000/svg">
<path d="M6.88906 11.4868C7.59779 11.3916 8.30652 11.6349 8.80898 12.1373L10.0783 13.4067L11.279 12.2114L9.54415 10.4819C9.27441 10.2121 9.27441 9.77312 9.54415 9.50338C9.81389 9.23364 10.2529 9.23364 10.5226 9.50338L12.2574 11.2382L13.458 10.0429L12.1834 8.7682C11.6809 8.26575 11.4376 7.55173 11.5328 6.84829C11.7444 5.24042 11.2314 3.55851 9.99901 2.32088C8.74022 1.06209 7.016 0.55434 5.38169 0.797636C5.12252 0.834659 5.01674 1.15729 5.20186 1.34241L6.83617 2.97672C7.61366 3.7542 7.61366 5.01299 6.83617 5.78519L5.83125 6.79011C5.05377 7.56759 3.79498 7.56759 3.02278 6.79011L1.38318 5.1558C1.19806 4.97068 0.88072 5.07646 0.838407 5.33562C0.595112 6.96993 1.10286 8.69416 2.36165 9.95295C3.59928 11.1853 5.28119 11.6983 6.88906 11.4868Z" fill="#52ADE1"/>
<path d="M17.0545 13.6394L15.8539 14.8347L22.9835 21.9643C23.2532 22.2341 23.2532 22.6731 22.9835 22.9428C22.7138 23.2126 22.2748 23.2126 22.005 22.9428L14.8754 15.8132L13.6748 17.0085L21.0213 24.355C21.9521 25.2859 23.4595 25.2806 24.3904 24.3497C25.3213 23.4188 25.3213 21.9115 24.3957 20.9806L17.0545 13.6394Z" fill="#52ADE1"/>
<path d="M19.8106 8.87943H22.9787L26.1468 2.54846L24.5654 0.967041L18.2292 4.12988V7.29801L9.61862 15.8821L8.06893 14.3377L1.82788 20.5788C0.526775 21.8799 0.526775 23.9849 1.82788 25.286C3.12898 26.5871 5.23401 26.5871 6.53511 25.286L12.7762 19.0449L11.1947 17.4635L19.8106 8.87943Z" fill="#52ADE1"/>
</svg>
