<svg width="60" height="60" viewBox="0 0 60 60" fill="none" xmlns="http://www.w3.org/2000/svg">
<circle cx="30" cy="30" r="28.5" stroke="#86BE5C" stroke-width="3"/>
<path d="M40.8889 23.3975C41.02 23.5724 41.1073 23.7035 41.151 23.8784C41.151 23.9659 41.1947 24.1408 41.1947 24.3157V24.4032H35.6031V18.8062H35.6905C35.8652 18.8062 36.04 18.8499 36.1274 18.8499C36.3021 18.8936 36.4331 18.9811 36.6079 19.1122L40.8889 23.3975ZM34.2053 24.753C34.2053 25.0591 34.2926 25.3214 34.511 25.4963C34.6858 25.715 34.9479 25.8024 35.2537 25.8024H41.1947V40.1448C41.1947 40.4509 41.0636 40.7132 40.8889 40.8881C40.6705 41.1068 40.4084 41.1942 40.1463 41.1942H28.6137V37.2151C28.9632 37.0402 29.3126 36.8215 29.5748 36.5155C29.8369 36.2094 30.0553 35.8596 30.1863 35.4223L30.3174 34.8976C30.3174 34.8976 30.3611 34.8101 30.4484 34.7227L30.6232 34.5915C30.9726 34.2417 31.1911 33.8481 31.3221 33.3671C31.4095 32.9299 31.4095 32.4489 31.3221 31.9679L31.2347 31.7492C31.1911 31.6181 31.1911 31.5306 31.1911 31.4869C31.1911 31.4432 31.1911 31.3557 31.2347 31.2245L31.3221 31.0059C31.4095 30.5686 31.4095 30.0876 31.3221 29.6066C31.1911 29.1694 30.9726 28.7758 30.6232 28.426L30.4484 28.2511C30.3611 28.1637 30.2737 28.1199 30.2737 28.0762C30.2737 28.0325 30.23 27.945 30.23 27.8138L30.1426 27.5952C30.0116 27.1579 29.7932 26.7207 29.4437 26.3709C29.0942 26.0211 28.7011 25.8024 28.2642 25.6712L27.7837 25.5401L27.609 25.3652L27.4779 25.1902C26.9537 24.6655 26.2984 24.4032 25.5558 24.4032C25.3811 24.4032 25.2937 24.4469 25.2063 24.4469L24.42 24.6218V19.8556C24.42 19.5932 24.5074 19.3309 24.7258 19.1122C24.9006 18.9373 25.1627 18.8062 25.4685 18.8062H34.2053V24.753ZM29.6184 33.5858L29.5311 33.7169C29.269 33.9793 29.0942 34.1542 29.0505 34.2417C29.0069 34.3291 28.9632 34.5478 28.8758 34.8976L28.8321 35.0725C28.7448 35.2911 28.6574 35.466 28.4827 35.6409C28.3079 35.8158 28.0895 35.947 27.9148 35.9907L27.6527 36.0345C27.4342 36.1219 27.3032 36.1656 27.2595 36.1656L27.2158 36.2094V41.1942L24.42 39.795L21.6243 41.1942V36.2094L21.5806 36.1656C21.4932 36.1656 21.3622 36.1219 21.1874 36.0345L20.9253 35.9907C20.7069 35.947 20.5322 35.8158 20.3574 35.6409C20.1827 35.466 20.0516 35.2911 20.008 35.0725L19.9643 34.8976C19.8769 34.5478 19.7895 34.3291 19.7458 34.2417C19.7022 34.1542 19.5711 33.9793 19.309 33.7169L19.2216 33.5858C19.0469 33.4546 18.9159 33.2797 18.8722 33.0173C18.7848 32.7987 18.7848 32.5801 18.8722 32.3177L18.9159 32.1865C19.0032 31.8367 19.0469 31.6181 19.0469 31.4869C19.0469 31.3994 19.0032 31.1808 18.9159 30.831L18.8722 30.6561C18.7848 30.4374 18.7848 30.2188 18.8722 30.0002C18.9159 29.7815 19.0469 29.5629 19.2216 29.388L19.309 29.2568C19.5711 29.0382 19.7022 28.8633 19.7458 28.7758C19.7895 28.6884 19.8769 28.4697 19.9643 28.1199L20.008 27.945C20.0516 27.7264 20.1827 27.5515 20.3574 27.3766C20.5322 27.2017 20.7069 27.1142 20.9253 27.0268L21.1001 26.983C21.4058 26.8956 21.6243 26.8519 21.7116 26.7644C21.799 26.7207 21.9737 26.5458 22.2358 26.2834L22.3669 26.196C22.4979 26.0211 22.6727 25.9336 22.9348 25.8461C23.1532 25.8024 23.3716 25.8024 23.59 25.8461L23.7648 25.8899C24.0706 25.9773 24.289 26.0211 24.42 26.0211C24.5074 26.0211 24.7258 25.9773 25.0753 25.8899L25.25 25.8461C25.4248 25.8024 25.6432 25.8024 25.9053 25.8461C26.1237 25.9336 26.2984 26.0211 26.4732 26.196L26.6042 26.2834C26.8227 26.5458 26.9974 26.7207 27.0848 26.7644C27.1721 26.8519 27.3906 26.8956 27.74 26.983L27.9148 27.0268C28.0895 27.1142 28.3079 27.2017 28.4827 27.3766C28.6574 27.5515 28.7448 27.7264 28.8321 27.945L28.8758 28.1199C28.9632 28.4697 29.0069 28.6884 29.0505 28.7758C29.0942 28.8633 29.269 29.0382 29.5311 29.3006L29.6184 29.388C29.7932 29.5629 29.8805 29.7815 29.9679 30.0002C30.0116 30.2188 30.0116 30.4374 29.9679 30.6561L29.9242 30.831C29.8369 31.1808 29.7932 31.3994 29.7932 31.4869C29.7932 31.6181 29.8369 31.8367 29.9242 32.1865L29.9679 32.3177C30.0116 32.5801 30.0116 32.7987 29.9679 33.0173C29.8805 33.2797 29.7932 33.4546 29.6184 33.5858ZM24.42 34.1979C25.2063 34.1979 25.8616 33.9356 26.3858 33.4109C26.91 32.8861 27.2158 32.1865 27.2158 31.3994C27.2158 30.6124 26.91 29.9565 26.3858 29.4317C25.8616 28.907 25.2063 28.6009 24.42 28.6009C23.6337 28.6009 22.9348 28.907 22.4106 29.4317C21.8864 29.9565 21.6243 30.6124 21.6243 31.3994C21.6243 32.1865 21.8864 32.8861 22.4106 33.4109C22.9348 33.9356 23.6337 34.1979 24.42 34.1979Z" fill="#8A8A8A"/>
</svg>
